<svg id="Слой_1" data-name="Слой 1" xmlns="http://www.w3.org/2000/svg" viewBox="0 0 228.4 234.4"><defs><style>.cls-1{fill:#f4a200;}.cls-1,.cls-10,.cls-2,.cls-4,.cls-6,.cls-9{opacity:0.7;}.cls-1,.cls-10,.cls-11,.cls-12,.cls-2,.cls-3,.cls-4,.cls-5,.cls-6,.cls-7,.cls-8,.cls-9{isolation:isolate;}.cls-2{fill:#00b692;}.cls-3{fill:#d12c44;opacity:0.83;}.cls-4{fill:#5ca931;}.cls-5{fill:#0078b5;opacity:0.81;}.cls-6{fill:#f35100;}.cls-7{fill:#7c4a93;opacity:0.82;}.cls-8{fill:#d35448;opacity:0.8;}.cls-9{fill:#00acdc;}.cls-10{fill:#ec4500;}.cls-12{fill:inherit;font-size:43.61px;font-family:ArialMT, Arial;}</style></defs><title>logo-rights-info-removebg-preview</title><g id="Слой_1-2" data-name="Слой 1"><path class="cls-1" d="M91.2,64.9a64.53,64.53,0,0,0-11,7.8A71.92,71.92,0,0,0,66.4,89a64.51,64.51,0,0,0-5.3,10.9l-35.6-14L38.3,71.5,59.4,47.7l14-15.8Z" transform="translate(-10.8 -7.8)"/><path class="cls-2" d="M193.2,126.4v-2.1a68.35,68.35,0,0,0-2.5-18.2,67.08,67.08,0,0,0-14.9-27.2,64.39,64.39,0,0,0-8.5-8l21.1-25.5L196,61.5l18.1,38.4,13.1,27.7Z" transform="translate(-10.8 -7.8)"/><path class="cls-3" d="M213.5,46.4l-17.3,15L175.9,78.9a64.39,64.39,0,0,0-8.5-8,68.11,68.11,0,0,0-37.9-14.7c-1.5-.1-3.1-.2-4.6-.2a67.1,67.1,0,0,0-11,.9l-5.5-40.5-1.1-8,12.2,4.4,13.6,4.9Z" transform="translate(-10.8 -7.8)"/><path class="cls-4" d="M239.2,93l-8.8,69.9-.7,5.1-2.4,18.7-9.4-5.6L183,160.2a65.82,65.82,0,0,0,6-12.2,67.4,67.4,0,0,0,4.2-21.6v-2.1a68.35,68.35,0,0,0-2.5-18.2l23.5-6.3Z" transform="translate(-10.8 -7.8)"/><path class="cls-5" d="M233.3,164l-3.6,4L218,181.1l-41.7,46.5L167.8,211l-13-25.3a69.92,69.92,0,0,0,9.9-5.9,69.12,69.12,0,0,0,18.4-19.7,65.82,65.82,0,0,0,6-12.2l41.3,14.9Z" transform="translate(-10.8 -7.8)"/><path class="cls-6" d="M124.8,242.2,57,222.2l12.8-19L85.5,180a66.49,66.49,0,0,0,5.6,3.6,67.65,67.65,0,0,0,27.8,8.7l5.1.3.4,30.5Z" transform="translate(-10.8 -7.8)"/><path class="cls-7" d="M134.1,7.8l-.9,9.7-3.6,38.6c-1.5-.1-3.1-.2-4.6-.2a67.1,67.1,0,0,0-11,.9,68,68,0,0,0-22.8,8,64.53,64.53,0,0,0-11,7.8L59.5,47.7,49.7,36l58.8-19.6,11.1-3.7Z" transform="translate(-10.8 -7.8)"/><path class="cls-8" d="M61.2,99.9a68.07,68.07,0,0,0-4.5,24.3,81.08,81.08,0,0,0,.5,8.6,79.47,79.47,0,0,0,2.3,11L34,151.7l-23.2,7.1L22.6,61.6l15.8,9.8L66.5,89A61,61,0,0,0,61.2,99.9Z" transform="translate(-10.8 -7.8)"/><path class="cls-9" d="M184.5,206.4,167.7,211l-43.3,12-7.5,2.1,2-32.8,5.1.3h.9a69,69,0,0,0,29.8-6.8,69.92,69.92,0,0,0,9.9-5.9Z" transform="translate(-10.8 -7.8)"/><path class="cls-10" d="M91.2,183.6,75.9,211.9l-6.1-8.7L34,151.7,23.9,137.2l33.4-4.4a79.47,79.47,0,0,0,2.3,11,68,68,0,0,0,26,36.1A36.2,36.2,0,0,0,91.2,183.6Z" transform="translate(-10.8 -7.8)"/><g class="cls-11"><text class="cls-12" transform="translate(65.84 111.66)">Right</text><text class="cls-12" transform="translate(78.54 151.66)">Info</text></g></g></svg>
